<?xml version="1.0" encoding="UTF-8" standalone="no"?>
<!-- Created with Inkscape (http://www.inkscape.org/) -->

<svg
   xmlns:dc="http://purl.org/dc/elements/1.1/"
   xmlns:cc="http://creativecommons.org/ns#"
   xmlns:rdf="http://www.w3.org/1999/02/22-rdf-syntax-ns#"
   xmlns:svg="http://www.w3.org/2000/svg"
   xmlns="http://www.w3.org/2000/svg"
   xmlns:sodipodi="http://sodipodi.sourceforge.net/DTD/sodipodi-0.dtd"
   xmlns:inkscape="http://www.inkscape.org/namespaces/inkscape"
   width="425mm"
   height="200mm"
   viewBox="0 0 425 200"
   version="1.1"
   id="svg8"
   inkscape:version="0.92+devel (62bb88a, 2018-10-11)"
   sodipodi:docname="3.0mm.svg">
  <defs
     id="defs2" />
  <sodipodi:namedview
     id="base"
     pagecolor="#ffffff"
     bordercolor="#666666"
     borderopacity="1.0"
     inkscape:pageopacity="0.0"
     inkscape:pageshadow="2"
     inkscape:zoom="0.70710678"
     inkscape:cx="777.73991"
     inkscape:cy="433.44717"
     inkscape:document-units="mm"
     inkscape:current-layer="layer1"
     inkscape:document-rotation="0"
     showgrid="false"
     width="490mm"
     inkscape:window-width="1920"
     inkscape:window-height="1018"
     inkscape:window-x="-6"
     inkscape:window-y="-6"
     inkscape:window-maximized="1" />
  <metadata
     id="metadata5">
    <rdf:RDF>
      <cc:Work
         rdf:about="">
        <dc:format>image/svg+xml</dc:format>
        <dc:type
           rdf:resource="http://purl.org/dc/dcmitype/StillImage" />
        <dc:title></dc:title>
      </cc:Work>
    </rdf:RDF>
  </metadata>
  <g
     inkscape:label="Layer 1"
     inkscape:groupmode="layer"
     id="layer1">
    <path
       id="path1109"
       style="opacity:1;fill:none;stroke:#000000;stroke-width:0.5;stroke-miterlimit:4;stroke-dasharray:none;stroke-opacity:1"
       d="m 100.25378,59.939805 a 1.5,1.5 0 1 0 3,0 1.5,1.5 0 1 0 -3,0 z m 0,79.999995 a 1.5,1.5 0 1 0 3,0 1.5,1.5 0 1 0 -3,0 z M 12.252781,59.939805 a 1.5,1.5 0 1 0 3,0 1.5,1.5 0 1 0 -3,0 z m 0,79.999995 a 1.5,1.5 0 1 0 3,0 1.5,1.5 0 1 0 -3,0 z m -5e-4,-10 h 3.001 v -20 h -3.001 V 89.939804 h 3.001 V 69.939805 h -3.001 V 49.939806 h 3.001 v -20 h -3.001 V 9.9398073 H 27.75328 V 12.940807 H 47.753279 V 9.9398073 h 20 V 12.940807 H 87.753278 V 9.9398073 H 103.25428 V 29.939806 h -3.001 v 20 h 3.001 v 19.999999 h -3.001 v 19.999999 h 3.001 V 109.9398 h -3.001 v 20 h 3.001 v 20 h -3.001 v 20 h 3.001 v 20 H 12.252281 v -20 h 3.001 v -20 h -3.001 z"
       inkscape:connector-curvature="0" />
    <path
       id="path1184"
       style="opacity:1;fill:none;stroke:#000000;stroke-width:0.5;stroke-miterlimit:4;stroke-dasharray:none;stroke-opacity:1"
       d="m 142.85211,70.528691 v -1.5 h -5 v 1.5 z m 20,30.999999 v 1.5 h 5 v -1.5 z m 5,-30.999999 v -1.5 h -5 v 1.5 z m -25,30.999999 h -5 v 1.5 h 5 z m -23.25,9.12 a 1.5,1.5 0 1 0 3,0 1.5,1.5 0 1 0 -3,0 z m 5.08,40.64 a 1.5,1.5 0 1 0 3,0 1.5,1.5 0 1 0 -3,0 z m 58.42,-40.64 a 1.5,1.5 0 1 0 3,0 1.5,1.5 0 1 0 -3,0 z m -5.08,40.64 a 1.5,1.5 0 1 0 3,0 1.5,1.5 0 1 0 -3,0 z m -33.27,-123.999998 a 8.1,8.1 0 1 0 16.2,0 8.1,8.1 0 1 0 -16.2,0 z m 0,25.399999 a 8.1,8.1 0 1 0 16.2,0 8.1,8.1 0 1 0 -16.2,0 z m -37.4,117.299999 h 3 v -20 h -3 v -20 h 3 v -20 h -3 V 89.988691 h 3 v -20 h 13.08147 V 12.988692 h 19.41853 V 9.9886919 h 20 v 3.0000001 h 19.41852 v 56.999999 h 13.08148 v 20 h 3 v 19.999999 h -3 v 20 h 3 v 20 h -3 v 20 h 3 v 20 h -91 z"
       inkscape:connector-curvature="0" />
    <path
       id="path1233"
       style="opacity:1;fill:none;stroke:#000000;stroke-width:0.5;stroke-miterlimit:4;stroke-dasharray:none;stroke-opacity:1"
       d="m 224.27986,20.849521 a 8.1,8.1 0 1 0 16.2,0 8.1,8.1 0 1 0 -16.2,0 z m -25.4,0 a 8.1,8.1 0 1 0 16.2,0 8.1,8.1 0 1 0 -16.2,0 z m 50.8,-9.871321 h -60 v 19.742641 h 60 z"
       inkscape:connector-curvature="0" />
    <path
       id="path1274"
       style="opacity:1;fill:none;stroke:#000000;stroke-width:0.5;stroke-miterlimit:4;stroke-dasharray:none;stroke-opacity:1"
       d="m 224.19352,46.820514 a 8.1,8.1 0 1 0 16.2,0 8.1,8.1 0 1 0 -16.2,0 z m -25.4,0 a 8.1,8.1 0 1 0 16.2,0 8.1,8.1 0 1 0 -16.2,0 z m 50.8,-9.871321 h -60 v 19.742641 h 60 z"
       inkscape:connector-curvature="0" />
    <path
       id="path1335"
       style="opacity:1;fill:none;stroke:#000000;stroke-width:0.5;stroke-miterlimit:4;stroke-dasharray:none;stroke-opacity:1"
       d="m 297.81828,81.068013 a 3,3 0 1 0 6,0 3,3 0 1 0 -6,0 z m 102.3,-5.25 a 1.5,1.5 0 1 0 3,0 1.5,1.5 0 1 0 -3,0 z m 0,30.999997 a 1.5,1.5 0 1 0 3,0 1.5,1.5 0 1 0 -3,0 z m -31,0 a 1.5,1.5 0 1 0 3,0 1.5,1.5 0 1 0 -3,0 z m 0,-30.999997 a 1.5,1.5 0 1 0 3,0 1.5,1.5 0 1 0 -3,0 z m -40.7,5.25 a 3,3 0 1 0 6,0 3,3 0 1 0 -6,0 z m -3,-9 h -18.6 v 13 h 18.6 z m 60.7,43.499997 h 11.39901 a 2,2 0 0 0 0.9119,-0.22 27,27 0 0 0 14.14356,-18.629996 2,2 0 0 0 -1.95959,-2.400001 h -12.22451 a 2,2 0 0 0 -1.85213,1.245284 11.25,11.25 0 1 1 0,-8.490567 2,2 0 0 0 1.85213,1.245283 h 12.22451 a 2,2 0 0 0 1.95959,-2.4 27,27 0 0 0 -14.14356,-18.63 2,2 0 0 0 -0.9119,-0.22 h -11.39901 v 3 h -20 v -3 h -20 v 3 h -8.5 v 4.5 h 1.35 v 2.5 h -5.7 v -2.5 h 1.35 v -4.5 h -8.5 v -3 h -20 v 3 h -20 v -3 h -20 v 3 h -8.5 v 4.5 h 1.35 v 2.5 h -5.7 v -2.5 h 1.35 v -4.5 h -8.5 v -3 h -20 v 3 h -17 v 29.418525 h 57 v 16.081472 h 20 v -3 h 20 v 3 h 20 v -3 h 20 v 3 h 20 v -3 h 20 z"
       inkscape:connector-curvature="0" />
    <path
       id="path1393"
       style="opacity:1;fill:none;stroke:#000000;stroke-width:0.5;stroke-miterlimit:4;stroke-dasharray:none;stroke-opacity:1"
       d="m 321.34496,126.4728 h -18 v 8.2 h 18 z m -103.96,1.75 a 1.5,1.5 0 1 0 3,0 1.5,1.5 0 1 0 -3,0 z m 31,0 a 1.5,1.5 0 1 0 3,0 1.5,1.5 0 1 0 -3,0 z m 0,30.99999 a 1.5,1.5 0 1 0 3,0 1.5,1.5 0 1 0 -3,0 z m -31,0 a 1.5,1.5 0 1 0 3,0 1.5,1.5 0 1 0 -3,0 z m 17,-39.74999 h -11.39901 a 2,2 0 0 0 -0.9119,0.22 27,27 0 0 0 -14.14356,18.63 2,2 0 0 0 1.95959,2.4 h 12.22451 a 2,2 0 0 0 1.85213,-1.24529 11.25,11.25 0 1 1 0,8.49057 2,2 0 0 0 -1.85213,-1.24528 h -12.22451 a 2,2 0 0 0 -1.95959,2.4 27,27 0 0 0 14.14356,18.62999 2,2 0 0 0 0.9119,0.22 h 11.39901 v -3 h 20 v 3 h 20 v -3 h 20 v 3 h 20 v -3 h 20 v 3 h 20 v -16.08147 h 57 V 122.4728 h -17 v -3 h -20 v 3 h -8.5 v 4.5 h 1.35 v 2.5 h -5.7 v -2.5 h 1.35 v -4.5 h -8.5 v -3 h -20 v 3 h -20 v -3 h -20 v 3 h -8.5 v 4.5 h 1.35 v 2.5 h -5.7 v -2.5 h 1.35 v -4.5 h -8.5 v -3 h -20 v 3 h -20 z"
       inkscape:connector-curvature="0" />
    <path
       id="path1433"
       style="opacity:1;fill:none;stroke:#000000;stroke-width:0.5;stroke-miterlimit:4;stroke-dasharray:none;stroke-opacity:1"
       d="m 306.95941,38.61286 a 2.5,2.5 0 1 0 0,-5 2.5,2.5 0 1 0 0,5 z m 10,-26.75 h 19.41852 v 2.12132 l 13.96016,13.960155 h 2.12132 V 57.36286 h -15.5 v 3 h -20 v -3 h -20 v 3 h -20 v -3 h -15.5 V 27.944335 h 2.12132 L 277.54089,13.98418 v -2.12132 h 19.41852 v 3 h 20 z"
       inkscape:connector-curvature="0" />
  </g>
</svg>
