<?xml version="1.0" encoding="UTF-8" standalone="no"?>
<!-- Created with Inkscape (http://www.inkscape.org/) -->

<svg
   xmlns:dc="http://purl.org/dc/elements/1.1/"
   xmlns:cc="http://creativecommons.org/ns#"
   xmlns:rdf="http://www.w3.org/1999/02/22-rdf-syntax-ns#"
   xmlns:svg="http://www.w3.org/2000/svg"
   xmlns="http://www.w3.org/2000/svg"
   xmlns:sodipodi="http://sodipodi.sourceforge.net/DTD/sodipodi-0.dtd"
   xmlns:inkscape="http://www.inkscape.org/namespaces/inkscape"
   width="425mm"
   height="200mm"
   viewBox="0 0 425 200"
   version="1.1"
   id="svg8"
   inkscape:version="0.92+devel (62bb88a, 2018-10-11)"
   sodipodi:docname="3.5mm.svg">
  <defs
     id="defs2" />
  <sodipodi:namedview
     id="base"
     pagecolor="#ffffff"
     bordercolor="#666666"
     borderopacity="1.0"
     inkscape:pageopacity="0.0"
     inkscape:pageshadow="2"
     inkscape:zoom="0.70710678"
     inkscape:cx="777.73991"
     inkscape:cy="433.44717"
     inkscape:document-units="mm"
     inkscape:current-layer="layer1"
     inkscape:document-rotation="0"
     showgrid="false"
     width="490mm"
     inkscape:window-width="1920"
     inkscape:window-height="1018"
     inkscape:window-x="-6"
     inkscape:window-y="-6"
     inkscape:window-maximized="1" />
  <metadata
     id="metadata5">
    <rdf:RDF>
      <cc:Work
         rdf:about="">
        <dc:format>image/svg+xml</dc:format>
        <dc:type
           rdf:resource="http://purl.org/dc/dcmitype/StillImage" />
        <dc:title></dc:title>
      </cc:Work>
    </rdf:RDF>
  </metadata>
  <g
     inkscape:label="Layer 1"
     inkscape:groupmode="layer"
     id="layer1">
    <path
       id="path964"
       style="opacity:1;fill:none;stroke:#000000;stroke-width:0.5;stroke-miterlimit:4;stroke-dasharray:none;stroke-opacity:1"
       d="m 100.37331,59.905354 a 1.5,1.5 0 1 0 3,0 1.5,1.5 0 1 0 -3,0 z m 0,79.999996 a 1.5,1.5 0 1 0 3,0 1.5,1.5 0 1 0 -3,0 z M 11.873309,59.905354 a 1.5,1.5 0 1 0 3,0 1.5,1.5 0 1 0 -3,0 z m 0,79.999996 a 1.5,1.5 0 1 0 3,0 1.5,1.5 0 1 0 -3,0 z m -0.25,-10 h 3.5 v -20 h -3.5 V 89.905353 h 3.5 V 69.905354 h -3.5 v -20 h 3.5 V 29.905355 h -3.5 V 9.9053554 h 16 V 13.405355 H 47.623308 V 9.9053554 h 19.999999 v 3.4999996 h 20 V 9.9053554 H 103.62331 V 29.905355 h -3.5 v 19.999999 h 3.5 v 20 h -3.5 v 19.999999 h 3.5 v 19.999997 h -3.5 v 20 h 3.5 v 20 h -3.5 v 20 h 3.5 v 20 H 11.623309 v -20 h 3.5 v -20 h -3.5 z" />
    <path
       id="path1039"
       style="opacity:1;fill:none;stroke:#000000;stroke-width:0.5;stroke-miterlimit:4;stroke-dasharray:none;stroke-opacity:1"
       d="m 144.16107,68.974454 v -1.5 h -5 v 1.5 z m 20,30.999999 v 1.499997 h 5 v -1.499997 z m 5,-30.999999 v -1.5 h -5 v 1.5 z m -25,30.999999 h -5 v 1.499997 h 5 z m -23.25,9.119997 a 1.5,1.5 0 1 0 3,0 1.5,1.5 0 1 0 -3,0 z m 5.08,40.64 a 1.5,1.5 0 1 0 3,0 1.5,1.5 0 1 0 -3,0 z m 58.42,-40.64 a 1.5,1.5 0 1 0 3,0 1.5,1.5 0 1 0 -3,0 z m -5.08,40.64 a 1.5,1.5 0 1 0 3,0 1.5,1.5 0 1 0 -3,0 z m -33.27,-123.999995 a 8.1,8.1 0 1 0 16.2,0 8.1,8.1 0 1 0 -16.2,0 z m 0,25.399999 a 8.1,8.1 0 1 0 16.2,0 8.1,8.1 0 1 0 -16.2,0 z m -37.9,117.299996 h 3.5 v -20 h -3.5 v -20 h 3.5 v -20 h -3.5 V 88.434453 h 3.5 V 68.434454 h 13.08147 V 11.934455 h 19.41853 V 8.4344554 h 20 v 3.4999996 h 19.41852 v 56.499999 h 13.08148 v 19.999999 h 3.5 v 19.999997 h -3.5 v 20 h 3.5 v 20 h -3.5 v 20 h 3.5 v 20 h -92 z" />
    <path
       id="path1088"
       style="opacity:1;fill:none;stroke:#000000;stroke-width:0.5;stroke-miterlimit:4;stroke-dasharray:none;stroke-opacity:1"
       d="m 228.73223,18.334686 a 8.1,8.1 0 1 0 16.2,0 8.1,8.1 0 1 0 -16.2,0 z m -25.4,0 a 8.1,8.1 0 1 0 16.2,0 8.1,8.1 0 1 0 -16.2,0 z m 50.8,-9.974873 h -60 V 28.30956 h 60 z" />
    <path
       id="path1129"
       style="opacity:1;fill:none;stroke:#000000;stroke-width:0.5;stroke-miterlimit:4;stroke-dasharray:none;stroke-opacity:1"
       d="m 229.48058,43.030394 a 8.1,8.1 0 1 0 16.2,0 8.1,8.1 0 1 0 -16.2,0 z m -25.4,0 a 8.1,8.1 0 1 0 16.2,0 8.1,8.1 0 1 0 -16.2,0 z m 50.8,-9.974873 h -60 v 19.949747 h 60 z" />
    <path
       id="path1190"
       style="opacity:1;fill:none;stroke:#000000;stroke-width:0.5;stroke-miterlimit:4;stroke-dasharray:none;stroke-opacity:1"
       d="m 299.63644,78.432493 a 3,3 0 1 0 6,0 3,3 0 1 0 -6,0 z m 102.3,-5.25 a 1.5,1.5 0 1 0 3,0 1.5,1.5 0 1 0 -3,0 z m 0,30.999997 a 1.5,1.5 0 1 0 3,0 1.5,1.5 0 1 0 -3,0 z m -31,0 a 1.5,1.5 0 1 0 3,0 1.5,1.5 0 1 0 -3,0 z m 0,-30.999997 a 1.5,1.5 0 1 0 3,0 1.5,1.5 0 1 0 -3,0 z m -40.7,5.25 a 3,3 0 1 0 6,0 3,3 0 1 0 -6,0 z m -3,-8.999999 h -18.6 v 12.999999 h 18.6 z m 60.7,43.999996 h 10.36521 a 2,2 0 0 0 0.8292,-0.18 26.999999,26.999999 0 0 0 15.26007,-19.169996 2,2 0 0 0 -1.95959,-2.400001 h -12.22451 a 2,2 0 0 0 -1.85213,1.245284 11.25,11.25 0 1 1 0,-8.490567 2,2 0 0 0 1.85213,1.245283 h 12.22451 a 2,2 0 0 0 1.95959,-2.4 26.999999,26.999999 0 0 0 -15.26007,-19.169999 2,2 0 0 0 -0.8292,-0.18 h -10.36521 v 3.5 h -20 v -3.5 h -20 v 3.5 h -8.5 v 4 h 1.35 v 2.499999 h -5.7 v -2.499999 h 1.35 v -4 h -8.5 v -3.5 h -20 v 3.5 h -20 v -3.5 h -20 v 3.5 h -8.5 v 4 h 1.35 v 2.499999 h -5.7 v -2.499999 h 1.35 v -4 h -8.5 v -3.5 h -20 v 3.5 h -16.5 v 29.418524 h 56.5 v 16.581472 h 20 v -3.5 h 20 v 3.5 h 20 v -3.5 h 20 v 3.5 h 20 v -3.5 h 20 z" />
    <path
       id="path1248"
       style="opacity:1;fill:none;stroke:#000000;stroke-width:0.5;stroke-miterlimit:4;stroke-dasharray:none;stroke-opacity:1"
       d="m 322.40302,128.80417 h -18 v 8.2 h 18 z m -103.96,1.75 a 1.5,1.5 0 1 0 3,0 1.5,1.5 0 1 0 -3,0 z m 31,0 a 1.5,1.5 0 1 0 3,0 1.5,1.5 0 1 0 -3,0 z m 0,30.99999 a 1.5,1.5 0 1 0 3,0 1.5,1.5 0 1 0 -3,0 z m -31,0 a 1.5,1.5 0 1 0 3,0 1.5,1.5 0 1 0 -3,0 z m 17,-40.24999 h -10.36521 a 2,2 0 0 0 -0.8292,0.18 26.999999,26.999999 0 0 0 -15.26007,19.17 2,2 0 0 0 1.95959,2.4 h 12.22451 a 2,2 0 0 0 1.85213,-1.24529 11.25,11.25 0 1 1 0,8.49057 2,2 0 0 0 -1.85213,-1.24528 h -12.22451 a 2,2 0 0 0 -1.95959,2.4 26.999999,26.999999 0 0 0 15.26007,19.16999 2,2 0 0 0 0.8292,0.18 h 10.36521 v -3.5 h 20 v 3.5 h 20 v -3.5 h 20 v 3.5 h 20 v -3.5 h 20 v 3.5 h 20 v -16.58147 h 56.5 v -29.41852 h -16.5 v -3.5 h -20 v 3.5 h -8.5 v 4 h 1.35 v 2.5 h -5.7 v -2.5 h 1.35 v -4 h -8.5 v -3.5 h -20 v 3.5 h -20 v -3.5 h -20 v 3.5 h -8.5 v 4 h 1.35 v 2.5 h -5.7 v -2.5 h 1.35 v -4 h -8.5 v -3.5 h -20 v 3.5 h -20 z" />
    <path
       id="path1288"
       style="opacity:1;fill:none;stroke:#000000;stroke-width:0.5;stroke-miterlimit:4;stroke-dasharray:none;stroke-opacity:1"
       d="m 317.30238,34.305076 a 2.5,2.5 0 1 0 0,-5 2.5,2.5 0 1 0 0,5 z m 10,-27.2499996 h 19.41853 v 2.4748739 l 14.1066,14.1066007 h 2.47487 v 29.418524 h -16 v 3.5 h -20 v -3.5 h -20 v 3.5 h -20 v -3.5 h -16 V 23.636551 h 2.47488 L 287.88386,9.5299503 V 7.0550764 h 19.41852 v 3.4999996 h 20 z" />
  </g>
</svg>
