<?xml version="1.0" encoding="UTF-8" standalone="no"?>
<!-- Created with Inkscape (http://www.inkscape.org/) -->

<svg
   xmlns:dc="http://purl.org/dc/elements/1.1/"
   xmlns:cc="http://creativecommons.org/ns#"
   xmlns:rdf="http://www.w3.org/1999/02/22-rdf-syntax-ns#"
   xmlns:svg="http://www.w3.org/2000/svg"
   xmlns="http://www.w3.org/2000/svg"
   xmlns:sodipodi="http://sodipodi.sourceforge.net/DTD/sodipodi-0.dtd"
   xmlns:inkscape="http://www.inkscape.org/namespaces/inkscape"
   width="425mm"
   height="200mm"
   viewBox="0 0 425 200"
   version="1.1"
   id="svg8"
   inkscape:version="0.92+devel (62bb88a, 2018-10-11)"
   sodipodi:docname="4.0mm.svg">
  <defs
     id="defs2" />
  <sodipodi:namedview
     id="base"
     pagecolor="#ffffff"
     bordercolor="#666666"
     borderopacity="1.0"
     inkscape:pageopacity="0.0"
     inkscape:pageshadow="2"
     inkscape:zoom="0.70710678"
     inkscape:cx="777.73991"
     inkscape:cy="433.44717"
     inkscape:document-units="mm"
     inkscape:current-layer="layer1"
     inkscape:document-rotation="0"
     showgrid="false"
     width="490mm"
     inkscape:window-width="1920"
     inkscape:window-height="1018"
     inkscape:window-x="-6"
     inkscape:window-y="-6"
     inkscape:window-maximized="1" />
  <metadata
     id="metadata5">
    <rdf:RDF>
      <cc:Work
         rdf:about="">
        <dc:format>image/svg+xml</dc:format>
        <dc:type
           rdf:resource="http://purl.org/dc/dcmitype/StillImage" />
        <dc:title></dc:title>
      </cc:Work>
    </rdf:RDF>
  </metadata>
  <g
     inkscape:label="Layer 1"
     inkscape:groupmode="layer"
     id="layer1">
    <path
       id="path1381"
       style="opacity:1;fill:none;stroke:#000000;stroke-width:0.5;stroke-miterlimit:4;stroke-dasharray:none;stroke-opacity:1"
       d="m 98.752422,58.782821 a 1.5,1.5 0 1 0 2.999998,0 1.5,1.5 0 1 0 -2.999998,0 z m 0,79.999999 a 1.5,1.5 0 1 0 2.999998,0 1.5,1.5 0 1 0 -2.999998,0 z M 9.7524233,58.782821 a 1.5,1.5 0 1 0 2.9999997,0 1.5,1.5 0 1 0 -2.9999997,0 z m 0,79.999999 a 1.5,1.5 0 1 0 2.9999997,0 1.5,1.5 0 1 0 -2.9999997,0 z m -0.5,-10 h 3.9999997 v -20 H 9.2524233 V 88.782821 h 3.9999997 v -20 H 9.2524233 v -20 H 13.252423 V 28.782822 H 9.2524233 V 8.7828218 H 25.752423 v 4.0000002 h 20 V 8.7828218 h 20 v 4.0000002 h 20 V 8.7828218 H 102.25242 V 28.782822 h -3.999998 v 19.999999 h 3.999998 v 20 h -3.999998 v 20 h 3.999998 v 19.999999 h -3.999998 v 20 h 3.999998 v 20 h -3.999998 v 20 h 3.999998 v 20 H 9.2524233 v -20 h 3.9999997 v -20 H 9.2524233 Z" />
    <path
       id="path1456"
       style="opacity:1;fill:none;stroke:#000000;stroke-width:0.5;stroke-miterlimit:4;stroke-dasharray:none;stroke-opacity:1"
       d="m 144.16106,70.471171 v -1.5 h -5 v 1.5 z m 20,30.999999 v 1.5 h 5 v -1.5 z m 5,-30.999999 v -1.5 h -5 v 1.5 z m -25,30.999999 h -5 v 1.5 h 5 z m -23.25,9.12 a 1.5,1.5 0 1 0 3,0 1.5,1.5 0 1 0 -3,0 z m 5.08,40.64 a 1.5,1.5 0 1 0 3,0 1.5,1.5 0 1 0 -3,0 z m 58.42,-40.64 a 1.5,1.5 0 1 0 3,0 1.5,1.5 0 1 0 -3,0 z m -5.08,40.64 a 1.5,1.5 0 1 0 3,0 1.5,1.5 0 1 0 -3,0 z m -33.27,-123.999998 a 8.1,8.1 0 1 0 16.2,0 8.1,8.1 0 1 0 -16.2,0 z m 0,25.399999 a 8.1,8.1 0 1 0 16.2,0 8.1,8.1 0 1 0 -16.2,0 z m -38.4,117.299999 h 4 v -20 h -4 v -20 h 4 v -20 h -4 V 89.931171 h 4 v -20 h 13.08147 V 13.931172 h 19.41853 V 9.9311718 h 20 v 4.0000002 h 19.41852 v 55.999999 h 13.08148 v 20 h 4 v 19.999999 h -4 v 20 h 4 v 20 h -4 v 20 h 4 v 20 h -93 z" />
    <path
       id="path1505"
       style="opacity:1;fill:none;stroke:#000000;stroke-width:0.5;stroke-miterlimit:4;stroke-dasharray:none;stroke-opacity:1"
       d="m 235.09324,22.076458 a 8.1,8.1 0 1 0 16.2,0 8.1,8.1 0 1 0 -16.2,0 z m -25.4,0 a 8.1,8.1 0 1 0 16.2,0 8.1,8.1 0 1 0 -16.2,0 z m 50.8,-10.078426 h -60 v 20.156853 h 60 z" />
    <path
       id="path1546"
       style="opacity:1;fill:none;stroke:#000000;stroke-width:0.5;stroke-miterlimit:4;stroke-dasharray:none;stroke-opacity:1"
       d="m 235.46741,47.520517 a 8.1,8.1 0 1 0 16.2,0 8.1,8.1 0 1 0 -16.2,0 z m -25.4,0 a 8.1,8.1 0 1 0 16.2,0 8.1,8.1 0 1 0 -16.2,0 z m 50.8,-10.078426 h -60 v 20.156853 h 60 z" />
    <path
       id="path1607"
       style="opacity:1;fill:none;stroke:#000000;stroke-width:0.5;stroke-miterlimit:4;stroke-dasharray:none;stroke-opacity:1"
       d="m 297.88972,82.922625 a 3,3 0 1 0 6,0 3,3 0 1 0 -6,0 z m 102.3,25.749995 a 1.5,1.5 0 1 0 3,0 1.5,1.5 0 1 0 -3,0 z m 0,-30.999995 a 1.5,1.5 0 1 0 3,0 1.5,1.5 0 1 0 -3,0 z m -31,0 a 1.5,1.5 0 1 0 3,0 1.5,1.5 0 1 0 -3,0 z m 0,30.999995 a 1.5,1.5 0 1 0 3,0 1.5,1.5 0 1 0 -3,0 z m -40.7,-25.749995 a 3,3 0 1 0 6,0 3,3 0 1 0 -6,0 z m -3,-9 h -18.6 v 13 h 18.6 z m 60.7,44.499995 h 9.18899 a 2,2 0 0 0 0.7351,-0.14 27,27 0 0 0 16.53038,-19.709994 2,2 0 0 0 -1.95959,-2.400001 h -12.22451 a 2,2 0 0 0 -1.85213,1.245284 11.25,11.25 0 1 1 0,-8.490567 2,2 0 0 0 1.85213,1.245283 h 12.22451 a 2,2 0 0 0 1.95959,-2.4 27,27 0 0 0 -16.53038,-19.71 2,2 0 0 0 -0.7351,-0.14 h -9.18899 v 4 h -20 v -4 h -20 v 4 h -8.5 v 3.5 h 1.35 v 2.5 h -5.7 v -2.5 h 1.35 v -3.5 h -8.5 v -4 h -20 v 4 h -20 v -4 h -20 v 4 h -8.5 v 3.5 h 1.35 v 2.5 h -5.7 v -2.5 h 1.35 v -3.5 h -8.5 v -4 h -20 v 4 h -16 v 29.418525 h 56 v 17.08147 h 20 v -4 h 20 v 4 h 20 v -4 h 20 v 4 h 20 v -4 h 20 z" />
    <path
       id="path1665"
       style="opacity:1;fill:none;stroke:#000000;stroke-width:0.5;stroke-miterlimit:4;stroke-dasharray:none;stroke-opacity:1"
       d="m 322.27884,134.04264 h -18 v 8.19999 h 18 z m -103.96,32.75 a 1.5,1.5 0 1 0 3,0 1.5,1.5 0 1 0 -3,0 z m 31,0 a 1.5,1.5 0 1 0 3,0 1.5,1.5 0 1 0 -3,0 z m 0,-31 a 1.5,1.5 0 1 0 3,0 1.5,1.5 0 1 0 -3,0 z m -31,0 a 1.5,1.5 0 1 0 3,0 1.5,1.5 0 1 0 -3,0 z m 17,-9.75 h -9.18899 a 2,2 0 0 0 -0.7351,0.14 27,27 0 0 0 -16.53038,19.71 2,2 0 0 0 1.95959,2.4 h 12.22451 a 2,2 0 0 0 1.85213,-1.24529 11.25,11.25 0 1 1 0,8.49057 2,2 0 0 0 -1.85213,-1.24528 h -12.22451 a 2,2 0 0 0 -1.95959,2.4 27,27 0 0 0 16.53038,19.70999 2,2 0 0 0 0.7351,0.14001 h 9.18899 v -4 h 20 v 4 h 20 v -4 h 20 v 4 h 20 v -4 h 20 v 4 h 20 v -17.08148 h 56 v -29.41852 h -16 v -4 h -20 v 4 h -8.5 v 3.5 h 1.35 v 2.5 h -5.7 v -2.5 h 1.35 v -3.5 h -8.5 v -4 h -20 v 4 h -20 v -4 h -20 v 4 h -8.5 v 3.5 h 1.35 v 2.5 h -5.7 v -2.5 h 1.35 v -3.5 h -8.5 v -4 h -20 v 4 h -20 z" />
    <path
       id="path1723"
       style="opacity:1;fill:none;stroke:#000000;stroke-width:0.5;stroke-miterlimit:4;stroke-dasharray:none;stroke-opacity:1"
       d="m 322.91505,34.679253 a 2.5,2.5 0 1 0 0,-5 2.5,2.5 0 1 0 0,5 z m 10,-27.75 h 19.41852 V 9.75768 l 14.25305,14.253048 h 2.82843 v 29.418525 h -16.5 v 4 h -20 v -4 h -20 v 4 h -20 v -4 h -16.5 V 24.010728 h 2.82843 L 293.49653,9.75768 V 6.929253 h 19.41852 v 4 h 20 z" />
  </g>
</svg>
