<?xml version="1.0" encoding="UTF-8" standalone="no"?>
<!-- Created with Inkscape (http://www.inkscape.org/) -->

<svg
   xmlns:dc="http://purl.org/dc/elements/1.1/"
   xmlns:cc="http://creativecommons.org/ns#"
   xmlns:rdf="http://www.w3.org/1999/02/22-rdf-syntax-ns#"
   xmlns:svg="http://www.w3.org/2000/svg"
   xmlns="http://www.w3.org/2000/svg"
   xmlns:sodipodi="http://sodipodi.sourceforge.net/DTD/sodipodi-0.dtd"
   xmlns:inkscape="http://www.inkscape.org/namespaces/inkscape"
   width="425mm"
   height="200mm"
   viewBox="0 0 425 200"
   version="1.1"
   id="svg8"
   inkscape:version="0.92+devel (62bb88a, 2018-10-11)"
   sodipodi:docname="4.5mm.svg">
  <defs
     id="defs2" />
  <sodipodi:namedview
     id="base"
     pagecolor="#ffffff"
     bordercolor="#666666"
     borderopacity="1.0"
     inkscape:pageopacity="0.0"
     inkscape:pageshadow="2"
     inkscape:zoom="0.70710678"
     inkscape:cx="777.73991"
     inkscape:cy="433.44717"
     inkscape:document-units="mm"
     inkscape:current-layer="layer1"
     inkscape:document-rotation="0"
     showgrid="false"
     width="490mm"
     inkscape:window-width="1920"
     inkscape:window-height="1018"
     inkscape:window-x="-6"
     inkscape:window-y="-6"
     inkscape:window-maximized="1" />
  <metadata
     id="metadata5">
    <rdf:RDF>
      <cc:Work
         rdf:about="">
        <dc:format>image/svg+xml</dc:format>
        <dc:type
           rdf:resource="http://purl.org/dc/dcmitype/StillImage" />
        <dc:title></dc:title>
      </cc:Work>
    </rdf:RDF>
  </metadata>
  <g
     inkscape:label="Layer 1"
     inkscape:groupmode="layer"
     id="layer1">
    <path
       id="path1798"
       style="opacity:1;fill:none;stroke:#000000;stroke-width:0.5;stroke-miterlimit:4;stroke-dasharray:none;stroke-opacity:1"
       d="m 102.37002,58.408645 a 1.5,1.5 0 1 0 3,0 1.5,1.5 0 1 0 -3,0 z m 0,79.999995 a 1.5,1.5 0 1 0 3,0 1.5,1.5 0 1 0 -3,0 z M 12.870022,58.408645 a 1.5,1.5 0 1 0 3,0 1.5,1.5 0 1 0 -3,0 z m 0,79.999995 a 1.5,1.5 0 1 0 3,0 1.5,1.5 0 1 0 -3,0 z m -0.75,-10 h 4.5 v -20 h -4.5 V 88.408644 h 4.5 V 68.408645 h -4.5 V 48.408646 h 4.5 v -20 h -4.5 V 8.4086472 h 16.999999 v 4.4999998 h 20 V 8.4086472 H 69.12002 V 12.908647 H 89.120019 V 8.4086472 H 106.12002 V 28.408646 h -4.5 v 20 h 4.5 v 19.999999 h -4.5 v 19.999999 h 4.5 v 19.999996 h -4.5 v 20 h 4.5 v 20 h -4.5 v 20 h 4.5 v 20 H 12.120022 v -20 h 4.5 v -20 h -4.5 z" />
    <path
       id="path1873"
       style="opacity:1;fill:none;stroke:#000000;stroke-width:0.5;stroke-miterlimit:4;stroke-dasharray:none;stroke-opacity:1"
       d="m 148.65119,69.348645 v -1.5 h -5 v 1.5 z m 20,30.999995 v 1.5 h 5 v -1.5 z m 5,-30.999995 v -1.5 h -5 v 1.5 z m -25,30.999995 h -5 v 1.5 h 5 z m -23.25,9.12 a 1.5,1.5 0 1 0 3,0 1.5,1.5 0 1 0 -3,0 z m 5.08,40.64 a 1.5,1.5 0 1 0 3,0 1.5,1.5 0 1 0 -3,0 z m 58.42,-40.64 a 1.5,1.5 0 1 0 3,0 1.5,1.5 0 1 0 -3,0 z m -5.08,40.64 a 1.5,1.5 0 1 0 3,0 1.5,1.5 0 1 0 -3,0 z m -33.27,-123.999993 a 8.1,8.1 0 1 0 16.2,0 8.1,8.1 0 1 0 -16.2,0 z m 0,25.399998 a 8.1,8.1 0 1 0 16.2,0 8.1,8.1 0 1 0 -16.2,0 z m -38.9,117.299995 h 4.5 v -20 h -4.5 v -20 h 4.5 v -20 h -4.5 V 88.808644 h 4.5 V 68.808645 h 13.08147 V 13.308647 h 19.41853 V 8.8086472 h 20 v 4.4999998 h 19.41852 v 55.499998 h 13.08148 v 19.999999 h 4.5 v 19.999996 h -4.5 v 20 h 4.5 v 20 h -4.5 v 20 h 4.5 v 20 h -94 z" />
    <path
       id="path1922"
       style="opacity:1;fill:none;stroke:#000000;stroke-width:0.5;stroke-miterlimit:4;stroke-dasharray:none;stroke-opacity:1"
       d="m 232.84817,20.953931 a 8.1,8.1 0 1 0 16.2,0 8.1,8.1 0 1 0 -16.2,0 z m -25.4,0 a 8.1,8.1 0 1 0 16.2,0 8.1,8.1 0 1 0 -16.2,0 z m 50.8,-10.181979 h -60 v 20.36396 h 60 z" />
    <path
       id="path1963"
       style="opacity:1;fill:none;stroke:#000000;stroke-width:0.5;stroke-miterlimit:4;stroke-dasharray:none;stroke-opacity:1"
       d="m 233.22236,48.643057 a 8.1,8.1 0 1 0 16.2,0 8.1,8.1 0 1 0 -16.2,0 z m -25.4,0 a 8.1,8.1 0 1 0 16.2,0 8.1,8.1 0 1 0 -16.2,0 z m 50.8,-10.181979 h -60 v 20.36396 h 60 z" />
    <path
       id="path2024"
       style="opacity:1;fill:none;stroke:#000000;stroke-width:0.5;stroke-miterlimit:4;stroke-dasharray:none;stroke-opacity:1"
       d="m 302.50403,86.664405 a 3,3 0 1 0 6,0 3,3 0 1 0 -6,0 z m 102.3,25.750005 a 1.5,1.5 0 1 0 3,0 1.5,1.5 0 1 0 -3,0 z m 0,-31.000005 a 1.5,1.5 0 1 0 3,0 1.5,1.5 0 1 0 -3,0 z m -31,31.000005 a 1.5,1.5 0 1 0 3,0 1.5,1.5 0 1 0 -3,0 z m 0,-31.000005 a 1.5,1.5 0 1 0 3,0 1.5,1.5 0 1 0 -3,0 z m -40.7,5.25 a 3,3 0 1 0 6,0 3,3 0 1 0 -6,0 z m -3,-9 h -18.6 v 13 h 18.6 z m 60.7,45.000005 h 7.80625 a 2,2 0 0 0 0.6245,-0.1 27,27 0 0 0 18.02374,-20.25 2,2 0 0 0 -1.95959,-2.400005 h -12.22451 a 2,2 0 0 0 -1.85213,1.245285 11.25,11.25 0 1 1 0,-8.490568 2,2 0 0 0 1.85213,1.245283 h 12.22451 a 2,2 0 0 0 1.95959,-2.4 27,27 0 0 0 -18.02374,-20.25 2,2 0 0 0 -0.6245,-0.1 h -7.80625 v 4.5 h -20 v -4.5 h -20 v 4.5 h -8.5 v 3 h 1.35 v 2.5 h -5.7 v -2.5 h 1.35 v -3 h -8.5 v -4.5 h -20 v 4.5 h -20 v -4.5 h -20 v 4.5 h -8.5 v 3 h 1.35 v 2.5 h -5.7 v -2.5 h 1.35 v -3 h -8.5 v -4.5 h -20 v 4.5 h -15.5 v 29.418525 h 55.5 v 17.58148 h 20 v -4.5 h 20 v 4.5 h 20 v -4.5 h 20 v 4.5 h 20 v -4.5 h 20 z" />
    <path
       id="path2096"
       style="opacity:1;fill:none;stroke:#000000;stroke-width:0.5;stroke-miterlimit:4;stroke-dasharray:none;stroke-opacity:1"
       d="m 326.27061,136.6619 h -18 v 8.19999 h 18 z m -103.96,32.75 a 1.5,1.5 0 1 0 3,0 1.5,1.5 0 1 0 -3,0 z m 31,-31 a 1.5,1.5 0 1 0 3,0 1.5,1.5 0 1 0 -3,0 z m 0,31 a 1.5,1.5 0 1 0 3,0 1.5,1.5 0 1 0 -3,0 z m -31,-31 a 1.5,1.5 0 1 0 3,0 1.5,1.5 0 1 0 -3,0 z m 17,-10.25 h -7.80625 a 2,2 0 0 0 -0.6245,0.1 27,27 0 0 0 -18.02374,20.25 2,2 0 0 0 1.95959,2.4 h 12.22451 a 2,2 0 0 0 1.85213,-1.24528 11.25,11.25 0 1 1 0,8.49057 2,2 0 0 0 -1.85213,-1.24529 h -12.22451 a 2,2 0 0 0 -1.95959,2.40001 27,27 0 0 0 18.02374,20.24999 2,2 0 0 0 0.6245,0.10001 h 7.80625 v -4.5 h 20 v 4.5 h 20 v -4.5 h 20 v 4.5 h 20 v -4.5 h 20 v 4.5 h 20 v -17.58148 h 55.5 V 132.6619 h -15.5 v -4.5 h -20 v 4.5 h -8.5 v 3 h 1.35 v 2.5 h -5.7 v -2.5 h 1.35 v -3 h -8.5 v -4.5 h -20 v 4.5 h -20 v -4.5 h -20 v 4.5 h -8.5 v 3 h 1.35 v 2.5 h -5.7 v -2.5 h 1.35 v -3 h -8.5 v -4.5 h -20 v 4.5 h -20 z" />
    <path
       id="path2136"
       style="opacity:1;fill:none;stroke:#000000;stroke-width:0.5;stroke-miterlimit:4;stroke-dasharray:none;stroke-opacity:1"
       d="m 320.66998,37.672673 a 2.5,2.5 0 1 0 0,-5 2.5,2.5 0 1 0 0,5 z m 10,-28.2499995 h 19.41853 V 12.604654 L 364.488,27.004148 h 3.18198 v 29.418525 h -17 v 4.5 h -20 v -4.5 h -20 v 4.5 h -20 v -4.5 h -17 V 27.004148 h 3.18198 l 14.3995,-14.399494 V 9.4226735 h 19.41852 v 4.4999995 h 20 z" />
  </g>
</svg>
