<?xml version="1.0" encoding="UTF-8" standalone="no"?>
<!-- Created with Inkscape (http://www.inkscape.org/) -->

<svg
   xmlns:dc="http://purl.org/dc/elements/1.1/"
   xmlns:cc="http://creativecommons.org/ns#"
   xmlns:rdf="http://www.w3.org/1999/02/22-rdf-syntax-ns#"
   xmlns:svg="http://www.w3.org/2000/svg"
   xmlns="http://www.w3.org/2000/svg"
   xmlns:sodipodi="http://sodipodi.sourceforge.net/DTD/sodipodi-0.dtd"
   xmlns:inkscape="http://www.inkscape.org/namespaces/inkscape"
   width="425mm"
   height="200mm"
   viewBox="0 0 425 200"
   version="1.1"
   id="svg8"
   inkscape:version="0.92+devel (62bb88a, 2018-10-11)"
   sodipodi:docname="5.0mm.svg">
  <defs
     id="defs2" />
  <sodipodi:namedview
     id="base"
     pagecolor="#ffffff"
     bordercolor="#666666"
     borderopacity="1.0"
     inkscape:pageopacity="0.0"
     inkscape:pageshadow="2"
     inkscape:zoom="0.70710678"
     inkscape:cx="803.70133"
     inkscape:cy="421.04489"
     inkscape:document-units="mm"
     inkscape:current-layer="layer1"
     inkscape:document-rotation="0"
     showgrid="false"
     width="490mm"
     inkscape:window-width="1920"
     inkscape:window-height="1018"
     inkscape:window-x="-6"
     inkscape:window-y="-6"
     inkscape:window-maximized="1" />
  <metadata
     id="metadata5">
    <rdf:RDF>
      <cc:Work
         rdf:about="">
        <dc:format>image/svg+xml</dc:format>
        <dc:type
           rdf:resource="http://purl.org/dc/dcmitype/StillImage" />
        <dc:title></dc:title>
      </cc:Work>
    </rdf:RDF>
  </metadata>
  <g
     inkscape:label="Layer 1"
     inkscape:groupmode="layer"
     id="layer1">
    <path
       id="path2229"
       style="opacity:1;fill:none;stroke:#000000;stroke-width:0.5;stroke-miterlimit:4;stroke-dasharray:none;stroke-opacity:1"
       d="m 102.62002,58.034463 a 1.5,1.5 0 1 0 3,0 1.5,1.5 0 1 0 -3,0 z m 0,79.999997 a 1.5,1.5 0 1 0 3,0 1.5,1.5 0 1 0 -3,0 z M 12.620019,58.034463 a 1.5,1.5 0 1 0 3,0 1.5,1.5 0 1 0 -3,0 z m 0,79.999997 a 1.5,1.5 0 1 0 3,0 1.5,1.5 0 1 0 -3,0 z m -1,-10 h 5 v -20 h -5 V 88.034462 h 5 v -20 h -5 V 48.034463 h 5 v -20 h -5 V 8.0344636 h 17.5 V 13.034464 H 49.120018 V 8.0344636 h 20 V 13.034464 H 89.120017 V 8.0344636 H 106.62002 V 28.034463 h -5 v 20 h 5 v 19.999999 h -5 v 20 h 5 v 19.999998 h -5 v 20 h 5 v 20 h -5 v 20 h 5 v 20 H 11.620019 v -20 h 5 v -20 h -5 z" />
    <path
       id="path2304"
       style="opacity:1;fill:none;stroke:#000000;stroke-width:0.5;stroke-miterlimit:4;stroke-dasharray:none;stroke-opacity:1"
       d="m 150.1479,69.348642 v -1.5 h -5 v 1.5 z m 20,30.999998 v 1.5 h 5 v -1.5 z m 5,-30.999998 v -1.5 h -5 v 1.5 z m -25,30.999998 h -5 v 1.5 h 5 z m -23.25,9.12 a 1.5,1.5 0 1 0 3,0 1.5,1.5 0 1 0 -3,0 z m 5.08,40.64 a 1.5,1.5 0 1 0 3,0 1.5,1.5 0 1 0 -3,0 z m 58.42,-40.64 a 1.5,1.5 0 1 0 3,0 1.5,1.5 0 1 0 -3,0 z m -5.08,40.64 a 1.5,1.5 0 1 0 3,0 1.5,1.5 0 1 0 -3,0 z m -33.27,-123.999997 a 8.1,8.1 0 1 0 16.2,0 8.1,8.1 0 1 0 -16.2,0 z m 0,25.4 a 8.1,8.1 0 1 0 16.2,0 8.1,8.1 0 1 0 -16.2,0 z m -39.4,117.299997 h 5 v -20 h -5 v -20 h 5 v -20 h -5 V 88.808642 h 5 v -20 h 13.08147 V 13.808644 H 150.1479 V 8.8086436 h 20 v 5.0000004 h 19.41852 v 54.999998 h 13.08148 v 20 h 5 v 19.999998 h -5 v 20 h 5 v 20 h -5 v 20 h 5 v 20 h -95 z" />
    <path
       id="path2367"
       style="opacity:1;fill:none;stroke:#000000;stroke-width:0.5;stroke-miterlimit:4;stroke-dasharray:none;stroke-opacity:1"
       d="m 240.33173,23.947349 a 8.1,8.1 0 1 0 16.2,0 8.1,8.1 0 1 0 -16.2,0 z m -25.4,0 a 8.1,8.1 0 1 0 16.2,0 8.1,8.1 0 1 0 -16.2,0 z m 50.8,-10.285534 h -60 v 20.571068 h 60 z" />
    <path
       id="path2408"
       style="opacity:1;fill:none;stroke:#000000;stroke-width:0.5;stroke-miterlimit:4;stroke-dasharray:none;stroke-opacity:1"
       d="m 239.58337,53.133182 a 8.1,8.1 0 1 0 16.2,0 8.1,8.1 0 1 0 -16.2,0 z m -25.4,0 a 8.1,8.1 0 1 0 16.2,0 8.1,8.1 0 1 0 -16.2,0 z m 50.8,-10.285534 h -60 v 20.571068 h 60 z" />
    <path
       id="path2469"
       style="opacity:1;fill:none;stroke:#000000;stroke-width:0.5;stroke-miterlimit:4;stroke-dasharray:none;stroke-opacity:1"
       d="m 303.37656,88.535285 a 3,3 0 1 0 6,0 3,3 0 1 0 -6,0 z m 102.3,25.750005 a 1.5,1.5 0 1 0 3,0 1.5,1.5 0 1 0 -3,0 z m 0,-31.000005 a 1.5,1.5 0 1 0 3,0 1.5,1.5 0 1 0 -3,0 z m -31,0 a 1.5,1.5 0 1 0 3,0 1.5,1.5 0 1 0 -3,0 z m 0,31.000005 a 1.5,1.5 0 1 0 3,0 1.5,1.5 0 1 0 -3,0 z m -40.7,-25.750005 a 3,3 0 1 0 6,0 3,3 0 1 0 -6,0 z m -3,-9 h -18.6 v 13 h 18.6 z m 60.7,45.500005 h 6.07762 a 2,2 0 0 0 0.4862,-0.06 27,27 0 0 0 19.89066,-20.79 2,2 0 0 0 -1.95959,-2.4 h -12.22451 a 2,2 0 0 0 -1.85213,1.24528 11.25,11.25 0 1 1 0,-8.490568 2,2 0 0 0 1.85213,1.245283 h 12.22451 a 2,2 0 0 0 1.95959,-2.4 27,27 0 0 0 -19.89066,-20.79 2,2 0 0 0 -0.4862,-0.06 h -6.07762 v 5 h -20 v -5 h -20 v 5 h -8.5 v 2.5 h 1.35 v 2.5 h -5.7 v -2.5 h 1.35 v -2.5 h -8.5 v -5 h -20 v 5 h -20 v -5 h -20 v 5 h -8.5 v 2.5 h 1.35 v 2.5 h -5.7 v -2.5 h 1.35 v -2.5 h -8.5 v -5 h -20 v 5 h -15 v 29.418525 h 55 v 18.08148 h 20 v -5 h 20 v 5 h 20 v -5 h 20 v 5 h 20 v -5 h 20 z" />
    <path
       id="path2527"
       style="opacity:1;fill:none;stroke:#000000;stroke-width:0.5;stroke-miterlimit:4;stroke-dasharray:none;stroke-opacity:1"
       d="m 326.89479,140.40366 h -18 v 8.19999 h 18 z m -103.96,32.75 a 1.5,1.5 0 1 0 3,0 1.5,1.5 0 1 0 -3,0 z m 31,0 a 1.5,1.5 0 1 0 3,0 1.5,1.5 0 1 0 -3,0 z m 0,-31 a 1.5,1.5 0 1 0 3,0 1.5,1.5 0 1 0 -3,0 z m -31,0 a 1.5,1.5 0 1 0 3,0 1.5,1.5 0 1 0 -3,0 z m 17,-10.75 h -6.07762 a 2,2 0 0 0 -0.4862,0.06 27,27 0 0 0 -19.89066,20.78999 2,2 0 0 0 1.95959,2.40001 h 12.22451 a 2,2 0 0 0 1.85213,-1.24529 11.25,11.25 0 1 1 0,8.49057 2,2 0 0 0 -1.85213,-1.24528 H 215.4399 a 2,2 0 0 0 -1.95959,2.4 27,27 0 0 0 19.89066,20.78999 2,2 0 0 0 0.4862,0.06 h 6.07762 v -5 h 20 v 5 h 20 v -5 h 20 v 5 h 20 v -5 h 20 v 5 h 20 v -18.08148 h 55 v -29.41852 h -15 v -5 h -20 v 5 h -8.5 v 2.5 h 1.35 v 2.5 h -5.7 v -2.5 h 1.35 v -2.5 h -8.5 v -5 h -20 v 5 h -20 v -5 h -20 v 5 h -8.5 v 2.5 h 1.35 v 2.5 h -5.7 v -2.5 h 1.35 v -2.5 h -8.5 v -5 h -20 v 5 h -20 z" />
    <path
       id="path2567"
       style="opacity:1;fill:none;stroke:#000000;stroke-width:0.5;stroke-miterlimit:4;stroke-dasharray:none;stroke-opacity:1"
       d="m 322.91504,41.414447 a 2.5,2.5 0 1 0 0,-5 2.5,2.5 0 1 0 0,5 z m 10,-28.75 h 19.41852 v 3.535534 l 14.54595,14.545941 h 3.53553 v 29.418525 h -17.5 v 5 h -20 v -5 h -20 v 5 h -20 v -5 h -17.5 V 30.745922 h 3.53553 l 14.54594,-14.545941 v -3.535534 h 19.41853 v 5 h 20 z" />
  </g>
</svg>
